<?xml version="1.0" encoding="utf-8"?>
<!-- Generator: Adobe Illustrator 18.1.1, SVG Export Plug-In . SVG Version: 6.00 Build 0)  -->
<svg version="1.1" id="Layer_1" xmlns="http://www.w3.org/2000/svg" xmlns:xlink="http://www.w3.org/1999/xlink" x="0px" y="0px"
	 viewBox="0 0 800 800" enable-background="new 0 0 800 800" xml:space="preserve">
<g>
	<rect x="102.5" y="180.5" fill="#D1D3D4" stroke="#000000" stroke-width="5" stroke-miterlimit="10" width="596" height="432"/>
	<g>
		<rect x="137.73" y="218.73" fill="#FFFFFF" width="526.556" height="354.692"/>
		<g>
			<path d="M661.786,221.23v349.693H140.23V221.23H661.786 M666.786,216.23H135.23v359.693h531.556V216.23L666.786,216.23z"/>
		</g>
	</g>
	<line fill="none" stroke="#D1D3D4" stroke-width="5" stroke-miterlimit="10" x1="140.383" y1="289.25" x2="661.383" y2="289.25"/>
	
		<line fill="none" stroke="#D1D3D4" stroke-width="5" stroke-miterlimit="10" x1="140.383" y1="359.625" x2="661.383" y2="359.625"/>
	<line fill="none" stroke="#D1D3D4" stroke-width="5" stroke-miterlimit="10" x1="140.383" y1="430" x2="661.383" y2="430"/>
	
		<line fill="none" stroke="#D1D3D4" stroke-width="5" stroke-miterlimit="10" x1="140.383" y1="500.375" x2="661.383" y2="500.375"/>
	<line fill="none" stroke="#D1D3D4" stroke-width="5" stroke-miterlimit="10" x1="534.135" y1="221.25" x2="534.135" y2="570.75"/>
	<line fill="none" stroke="#D1D3D4" stroke-width="5" stroke-miterlimit="10" x1="402.885" y1="221.25" x2="402.885" y2="570.75"/>
	<line fill="none" stroke="#D1D3D4" stroke-width="5" stroke-miterlimit="10" x1="271.635" y1="221.25" x2="271.635" y2="570.75"/>
	<polyline fill="none" stroke="#000000" stroke-width="12" stroke-miterlimit="10" points="172.45,510.667 238.431,433.689 
		304.412,510.667 370.392,375.956 436.373,472.178 502.354,318.222 568.335,491.422 634.316,356.711 	"/>
</g>
</svg>
